<svg width="74" height="74" viewBox="0 0 74 74" fill="none" xmlns="http://www.w3.org/2000/svg">
<path d="M36.6882 4.89175C35.2206 4.89175 34.7315 5.87011 33.7531 6.84846L5.3809 53.3202C4.89172 53.8094 4.89172 54.7877 4.89172 55.2769C4.89172 57.7228 6.84843 58.7011 8.31596 58.7011H65.0604C67.0171 58.7011 68.4846 57.7228 68.4846 55.2769C68.4846 54.2985 68.4846 54.2985 67.9954 53.3202L40.1124 6.84846C39.134 5.87011 38.1557 4.89175 36.6882 4.89175ZM36.6882 12.2294L52.831 39.1341H48.9176L41.5799 31.7964L36.6882 39.1341L31.7964 31.7964L24.4588 39.1341H20.0562L36.6882 12.2294Z" fill="black"/>
</svg>
