{
  "accessors": [
    {
      "bufferView": 2,
      "componentType": 5126,
      "count": 120,
      "max": [
        1.2166006565093994,
        1.2296061515808105,
        1.849169135093689
      ],
      "min": [
        -1.2155057191848755,
        -1.2024999856948853,
        0.29296326637268066
      ],
      "type": "VEC3"
    },
    {
      "bufferView": 2,
      "byteOffset": 1440,
      "componentType": 5126,
      "count": 120,
      "max": [
        0.8245229721069336,
        0.6462957262992859,
        1.0
      ],
      "min": [
        -0.9993054866790771,
        -0.9638652801513672,
        -0.4946135878562927
      ],
      "type": "VEC3"
    },
    {
      "bufferView": 1,
      "componentType": 5126,
      "count": 120,
      "max": [
        0.990350604057312,
        0.9863721132278442
      ],
      "min": [
        0.008688719943165779,
        0.01053432933986187
      ],
      "type": "VEC2"
    },
    {
      "bufferView": 0,
      "componentType": 5125,
      "count": 288,
      "type": "SCALAR"
    },
    {
      "bufferView": 2,
      "byteOffset": 2880,
      "componentType": 5126,
      "count": 2751,
      "max": [
        1.519420862197876,
        1.5338200330734253,
        2.780984878540039
      ],
      "min": [
        -1.535834789276123,
        -1.5072474479675293,
        -0.02149847149848938
      ],
      "type": "VEC3"
    },
    {
      "bufferView": 2,
      "byteOffset": 35892,
      "componentType": 5126,
      "count": 2751,
      "max": [
        0.999248743057251,
        0.9998592734336853,
        1.0
      ],
      "min": [
        -0.9988207817077637,
        -0.9999852776527405,
        -0.9995142221450806
      ],
      "type": "VEC3"
    },
    {
      "bufferView": 1,
      "byteOffset": 960,
      "componentType": 5126,
      "count": 2751,
      "max": [
        0.9902795553207397,
        0.9938664436340332
      ],
      "min": [
        0.005231380462646484,
        0.00561894103884697
      ],
      "type": "VEC2"
    },
    {
      "bufferView": 1,
      "byteOffset": 22968,
      "componentType": 5126,
      "count": 2751,
      "max": [
        0.9902795553207397,
        0.9938664436340332
      ],
      "min": [
        0.005231380462646484,
        0.00561894103884697
      ],
      "type": "VEC2"
    },
    {
      "bufferView": 0,
      "byteOffset": 1152,
      "componentType": 5125,
      "count": 14343,
      "type": "SCALAR"
    },
    {
      "bufferView": 2,
      "byteOffset": 68904,
      "componentType": 5126,
      "count": 32,
      "max": [
        2.5277652740478516,
        2.5277652740478516,
        -3.766663780879753e-08
      ],
      "min": [
        -2.5277652740478516,
        -2.5277652740478516,
        -3.766664136151121e-08
      ],
      "type": "VEC3"
    },
    {
      "bufferView": 2,
      "byteOffset": 69288,
      "componentType": 5126,
      "count": 32,
      "max": [
        2.1667339959990234e-15,
        2.950365891876629e-15,
        1.0
      ],
      "min": [
        -2.1667339959990234e-15,
        -2.950365891876629e-15,
        1.0
      ],
      "type": "VEC3"
    },
    {
      "bufferView": 1,
      "byteOffset": 44976,
      "componentType": 5126,
      "count": 32,
      "max": [
        0.9945414066314697,
        0.9138650894165039
      ],
      "min": [
        0.005458615720272064,
        0.03785724937915802
      ],
      "type": "VEC2"
    },
    {
      "bufferView": 0,
      "byteOffset": 58524,
      "componentType": 5125,
      "count": 48,
      "type": "SCALAR"
    },
    {
      "bufferView": 2,
      "byteOffset": 69672,
      "componentType": 5126,
      "count": 6731,
      "max": [
        2.0048649311065674,
        1.6541285514831543,
        1.2909096479415894
      ],
      "min": [
        -1.9226739406585693,
        -1.9169249534606934,
        -0.0029816622845828533
      ],
      "type": "VEC3"
    },
    {
      "bufferView": 2,
      "byteOffset": 150444,
      "componentType": 5126,
      "count": 6731,
      "max": [
        0.9999997019767761,
        0.9998965859413147,
        1.0
      ],
      "min": [
        -0.9998689889907837,
        -0.9999923706054688,
        -0.9732193946838379
      ],
      "type": "VEC3"
    },
    {
      "bufferView": 1,
      "byteOffset": 45232,
      "componentType": 5126,
      "count": 6731,
      "max": [
        0.9887905120849609,
        0.9916026592254639
      ],
      "min": [
        0.006167460232973099,
        0.009290903806686401
      ],
      "type": "VEC2"
    },
    {
      "bufferView": 1,
      "byteOffset": 99080,
      "componentType": 5126,
      "count": 6731,
      "max": [
        2.6142737865448,
        0.0
      ],
      "min": [
        0.0,
        -1.205783724784851
      ],
      "type": "VEC2"
    },
    {
      "bufferView": 0,
      "byteOffset": 58716,
      "componentType": 5125,
      "count": 9738,
      "type": "SCALAR"
    }
  ],
  "asset": {
    "extras": {
      "author": "SL (https://sketchfab.com/low.3d)",
      "license": "CC-BY-4.0 (http://creativecommons.org/licenses/by/4.0/)",
      "source": "https://sketchfab.com/3d-models/abandoned-fountain-dd3afb367a774d3a8fb6de2c968fa443",
      "title": "Abandoned fountain"
    },
    "generator": "Sketchfab-14.65.0",
    "version": "2.0"
  },
  "bufferViews": [
    {
      "buffer": 0,
      "byteLength": 97668,
      "name": "floatBufferViews",
      "target": 34963
    },
    {
      "buffer": 0,
      "byteLength": 152928,
      "byteOffset": 97668,
      "byteStride": 8,
      "name": "floatBufferViews",
      "target": 34962
    },
    {
      "buffer": 0,
      "byteLength": 231216,
      "byteOffset": 250596,
      "byteStride": 12,
      "name": "floatBufferViews",
      "target": 34962
    }
  ],
  "buffers": [
    {
      "byteLength": 481812,
      "uri": "scene.bin"
    }
  ],
  "extensionsUsed": [
    "KHR_materials_unlit"
  ],
  "images": [
    {
      "uri": "textures/water_baseColor.png"
    },
    {
      "uri": "textures/fountain_baseColor.png"
    },
    {
      "uri": "textures/ground_baseColor.png"
    },
    {
      "uri": "textures/aquatic_plants_baseColor.png"
    }
  ],
  "materials": [
    {
      "alphaMode": "BLEND",
      "doubleSided": true,
      "extensions": {
        "KHR_materials_unlit": {}
      },
      "name": "water",
      "pbrMetallicRoughness": {
        "baseColorFactor": [
          1.0,
          1.0,
          1.0,
          0.85
        ],
        "baseColorTexture": {
          "index": 0
        },
        "metallicFactor": 0.0
      }
    },
    {
      "doubleSided": true,
      "extensions": {
        "KHR_materials_unlit": {}
      },
      "name": "fountain",
      "pbrMetallicRoughness": {
        "baseColorTexture": {
          "index": 1
        },
        "metallicFactor": 0.0
      }
    },
    {
      "alphaMode": "BLEND",
      "doubleSided": true,
      "extensions": {
        "KHR_materials_unlit": {}
      },
      "name": "ground",
      "pbrMetallicRoughness": {
        "baseColorTexture": {
          "index": 2
        },
        "metallicFactor": 0.0
      }
    },
    {
      "alphaMode": "BLEND",
      "doubleSided": true,
      "extensions": {
        "KHR_materials_unlit": {}
      },
      "name": "aquatic_plants",
      "pbrMetallicRoughness": {
        "baseColorTexture": {
          "index": 3
        },
        "metallicFactor": 0.0
      }
    }
  ],
  "meshes": [
    {
      "name": "water_water_0",
      "primitives": [
        {
          "attributes": {
            "NORMAL": 1,
            "POSITION": 0,
            "TEXCOORD_0": 2
          },
          "indices": 3,
          "material": 0,
          "mode": 4
        }
      ]
    },
    {
      "name": "fountain_fountain_0",
      "primitives": [
        {
          "attributes": {
            "NORMAL": 5,
            "POSITION": 4,
            "TEXCOORD_0": 6,
            "TEXCOORD_1": 7
          },
          "indices": 8,
          "material": 1,
          "mode": 4
        }
      ]
    },
    {
      "name": "ground_ground_0",
      "primitives": [
        {
          "attributes": {
            "NORMAL": 10,
            "POSITION": 9,
            "TEXCOORD_0": 11
          },
          "indices": 12,
          "material": 2,
          "mode": 4
        }
      ]
    },
    {
      "name": "leaf_aquatic_plants_0",
      "primitives": [
        {
          "attributes": {
            "NORMAL": 14,
            "POSITION": 13,
            "TEXCOORD_0": 15,
            "TEXCOORD_1": 16
          },
          "indices": 17,
          "material": 3,
          "mode": 4
        }
      ]
    }
  ],
  "nodes": [
    {
      "children": [
        1
      ],
      "matrix": [
        1.0,
        0.0,
        0.0,
        0.0,
        0.0,
        2.220446049250313e-16,
        -1.0,
        0.0,
        0.0,
        1.0,
        2.220446049250313e-16,
        0.0,
        0.0,
        0.0,
        0.0,
        1.0
      ],
      "name": "Sketchfab_model"
    },
    {
      "children": [
        2
      ],
      "matrix": [
        0.009999999776482582,
        0.0,
        0.0,
        0.0,
        0.0,
        0.0,
        0.009999999776482582,
        0.0,
        0.0,
        -0.009999999776482582,
        0.0,
        0.0,
        0.0,
        0.0,
        0.0,
        1.0
      ],
      "name": "57da66a19dcd4e358919b0ec6f408d91.fbx"
    },
    {
      "children": [
        3,
        5,
        7,
        9
      ],
      "name": "RootNode"
    },
    {
      "children": [
        4
      ],
      "matrix": [
        1.0,
        0.0,
        0.0,
        0.0,
        0.0,
        2.220446049250313e-16,
        -1.0,
        0.0,
        0.0,
        1.0,
        2.220446049250313e-16,
        0.0,
        0.0,
        0.0,
        0.0,
        1.0
      ],
      "name": "water"
    },
    {
      "mesh": 0,
      "name": "water_water_0"
    },
    {
      "children": [
        6
      ],
      "matrix": [
        1.0,
        0.0,
        0.0,
        0.0,
        0.0,
        2.220446049250313e-16,
        -1.0,
        0.0,
        0.0,
        1.0,
        2.220446049250313e-16,
        0.0,
        0.0,
        0.0,
        0.0,
        1.0
      ],
      "name": "fountain"
    },
    {
      "mesh": 1,
      "name": "fountain_fountain_0"
    },
    {
      "children": [
        8
      ],
      "matrix": [
        1.0,
        0.0,
        0.0,
        0.0,
        0.0,
        2.220446049250313e-16,
        -1.0,
        0.0,
        0.0,
        1.0,
        2.220446049250313e-16,
        0.0,
        0.0,
        0.0,
        0.0,
        1.0
      ],
      "name": "ground"
    },
    {
      "mesh": 2,
      "name": "ground_ground_0"
    },
    {
      "children": [
        10
      ],
      "matrix": [
        1.0,
        0.0,
        0.0,
        0.0,
        0.0,
        2.220446049250313e-16,
        -1.0,
        0.0,
        0.0,
        1.0,
        2.220446049250313e-16,
        0.0,
        0.0,
        0.0,
        0.0,
        1.0
      ],
      "name": "leaf"
    },
    {
      "mesh": 3,
      "name": "leaf_aquatic_plants_0"
    }
  ],
  "samplers": [
    {
      "magFilter": 9729,
      "minFilter": 9987,
      "wrapS": 10497,
      "wrapT": 10497
    }
  ],
  "scene": 0,
  "scenes": [
    {
      "name": "Sketchfab_Scene",
      "nodes": [
        0
      ]
    }
  ],
  "textures": [
    {
      "sampler": 0,
      "source": 0
    },
    {
      "sampler": 0,
      "source": 1
    },
    {
      "sampler": 0,
      "source": 2
    },
    {
      "sampler": 0,
      "source": 3
    }
  ]
}
