{
  "accessors": [
    {
      "bufferView": 2,
      "componentType": 5126,
      "count": 5999,
      "max": [
        5.143528461456299,
        1.895070195198059,
        8.438013076782227
      ],
      "min": [
        -6.265717029571533,
        -2.3231053352355957,
        -1.9169224500656128
      ],
      "type": "VEC3"
    },
    {
      "bufferView": 2,
      "byteOffset": 71988,
      "componentType": 5126,
      "count": 5999,
      "max": [
        1.0,
        1.0,
        1.0
      ],
      "min": [
        -1.0,
        -1.0,
        -1.0
      ],
      "type": "VEC3"
    },
    {
      "bufferView": 1,
      "componentType": 5126,
      "count": 5999,
      "max": [
        1.0787451267242432,
        1.0
      ],
      "min": [
        -0.11811757832765579,
        0.0
      ],
      "type": "VEC2"
    },
    {
      "bufferView": 0,
      "componentType": 5125,
      "count": 8775,
      "type": "SCALAR"
    },
    {
      "bufferView": 2,
      "byteOffset": 143976,
      "componentType": 5126,
      "count": 1440,
      "max": [
        -4.235653400421143,
        0.8100867867469788,
        1.1537243127822876
      ],
      "min": [
        -6.107494354248047,
        -1.0625914335250854,
        -1.3816475868225098
      ],
      "type": "VEC3"
    },
    {
      "bufferView": 2,
      "byteOffset": 161256,
      "componentType": 5126,
      "count": 1440,
      "max": [
        0.9879083633422852,
        0.98746657371521,
        0.9998064041137695
      ],
      "min": [
        -0.9879087805747986,
        -0.9874665141105652,
        -0.999814510345459
      ],
      "type": "VEC3"
    },
    {
      "bufferView": 1,
      "byteOffset": 47992,
      "componentType": 5126,
      "count": 1440,
      "max": [
        1.1181176900863647,
        0.1583057940006256
      ],
      "min": [
        0.11811759322881699,
        0.13052798807621002
      ],
      "type": "VEC2"
    },
    {
      "bufferView": 0,
      "byteOffset": 35100,
      "componentType": 5125,
      "count": 2160,
      "type": "SCALAR"
    }
  ],
  "asset": {
    "extras": {
      "author": "chongdashu (https://sketchfab.com/chongdashu)",
      "license": "CC-BY-4.0 (http://creativecommons.org/licenses/by/4.0/)",
      "source": "https://sketchfab.com/3d-models/low-poly-street-food-cart-a74ed86472c945328f3f2cf98fb26977",
      "title": "Low Poly Street Food Cart"
    },
    "generator": "Sketchfab-12.68.0",
    "version": "2.0"
  },
  "bufferViews": [
    {
      "buffer": 0,
      "byteLength": 43740,
      "name": "floatBufferViews",
      "target": 34963
    },
    {
      "buffer": 0,
      "byteLength": 59512,
      "byteOffset": 43740,
      "byteStride": 8,
      "name": "floatBufferViews",
      "target": 34962
    },
    {
      "buffer": 0,
      "byteLength": 178536,
      "byteOffset": 103252,
      "byteStride": 12,
      "name": "floatBufferViews",
      "target": 34962
    }
  ],
  "buffers": [
    {
      "byteLength": 281788,
      "uri": "scene.bin"
    }
  ],
  "images": [
    {
      "uri": "textures/Material_baseColor.png"
    }
  ],
  "materials": [
    {
      "doubleSided": true,
      "name": "Material",
      "pbrMetallicRoughness": {
        "baseColorTexture": {
          "index": 0
        },
        "metallicFactor": 0.0
      }
    }
  ],
  "meshes": [
    {
      "name": "Cube_Material_0",
      "primitives": [
        {
          "attributes": {
            "NORMAL": 1,
            "POSITION": 0,
            "TEXCOORD_0": 2
          },
          "indices": 3,
          "material": 0,
          "mode": 4
        }
      ]
    },
    {
      "name": "Cube.001_Material_0",
      "primitives": [
        {
          "attributes": {
            "NORMAL": 5,
            "POSITION": 4,
            "TEXCOORD_0": 6
          },
          "indices": 7,
          "material": 0,
          "mode": 4
        }
      ]
    }
  ],
  "nodes": [
    {
      "children": [
        1
      ],
      "matrix": [
        1.0,
        0.0,
        0.0,
        0.0,
        0.0,
        2.220446049250313e-16,
        -1.0,
        0.0,
        0.0,
        1.0,
        2.220446049250313e-16,
        0.0,
        0.0,
        0.0,
        0.0,
        1.0
      ],
      "name": "Sketchfab_model"
    },
    {
      "children": [
        2
      ],
      "matrix": [
        1.0,
        0.0,
        0.0,
        0.0,
        0.0,
        0.0,
        1.0,
        0.0,
        0.0,
        -1.0,
        0.0,
        0.0,
        0.0,
        0.0,
        0.0,
        1.0
      ],
      "name": "996e88b92d2f42909330deff6c27dd59.fbx"
    },
    {
      "children": [
        3,
        5
      ],
      "name": "RootNode"
    },
    {
      "children": [
        4
      ],
      "matrix": [
        100.0,
        0.0,
        0.0,
        0.0,
        0.0,
        -1.629206793918314e-05,
        -99.99999999999868,
        0.0,
        0.0,
        99.99999999999868,
        -1.629206793918314e-05,
        0.0,
        0.0,
        147.23390197753906,
        0.0,
        1.0
      ],
      "name": "Cube"
    },
    {
      "mesh": 0,
      "name": "Cube_Material_0"
    },
    {
      "children": [
        6
      ],
      "matrix": [
        100.0,
        0.0,
        0.0,
        0.0,
        0.0,
        -1.629206793918314e-05,
        -99.99999999999868,
        0.0,
        0.0,
        99.99999999999868,
        -1.629206793918314e-05,
        0.0,
        0.0,
        147.23390197753906,
        0.0,
        1.0
      ],
      "name": "Cube.001"
    },
    {
      "mesh": 1,
      "name": "Cube.001_Material_0"
    }
  ],
  "samplers": [
    {
      "magFilter": 9729,
      "minFilter": 9987,
      "wrapS": 10497,
      "wrapT": 10497
    }
  ],
  "scene": 0,
  "scenes": [
    {
      "name": "Sketchfab_Scene",
      "nodes": [
        0
      ]
    }
  ],
  "textures": [
    {
      "sampler": 0,
      "source": 0
    }
  ]
}
