{
  "accessors": [
    {
      "bufferView": 2,
      "componentType": 5126,
      "count": 3278,
      "max": [
        3.2806661128997803,
        2.9687559604644775,
        6.199185371398926
      ],
      "min": [
        -3.069737672805786,
        -2.9643213748931885,
        -0.5131048560142517
      ],
      "type": "VEC3"
    },
    {
      "bufferView": 2,
      "byteOffset": 39336,
      "componentType": 5126,
      "count": 3278,
      "max": [
        0.9928985238075256,
        0.999536395072937,
        0.9952543377876282
      ],
      "min": [
        -0.999798059463501,
        -0.9954532384872437,
        -0.9996198415756226
      ],
      "type": "VEC3"
    },
    {
      "bufferView": 1,
      "componentType": 5126,
      "count": 3278,
      "max": [
        0.996384859085083,
        0.9879839420318604
      ],
      "min": [
        0.012589067220687866,
        0.009321540594100952
      ],
      "type": "VEC2"
    },
    {
      "bufferView": 0,
      "componentType": 5125,
      "count": 3414,
      "type": "SCALAR"
    }
  ],
  "asset": {
    "extras": {
      "author": "Alan Zimmerman (https://sketchfab.com/nenjo)",
      "license": "CC-BY-4.0 (http://creativecommons.org/licenses/by/4.0/)",
      "source": "https://sketchfab.com/3d-models/laurel-tree-low-poly-f1a5baa9d2e24f27a98be75f23f38f35",
      "title": "Laurel Tree - Low Poly"
    },
    "generator": "Sketchfab-12.67.0",
    "version": "2.0"
  },
  "bufferViews": [
    {
      "buffer": 0,
      "byteLength": 13656,
      "name": "floatBufferViews",
      "target": 34963
    },
    {
      "buffer": 0,
      "byteLength": 26224,
      "byteOffset": 13656,
      "byteStride": 8,
      "name": "floatBufferViews",
      "target": 34962
    },
    {
      "buffer": 0,
      "byteLength": 78672,
      "byteOffset": 39880,
      "byteStride": 12,
      "name": "floatBufferViews",
      "target": 34962
    }
  ],
  "buffers": [
    {
      "byteLength": 118552,
      "uri": "scene.bin"
    }
  ],
  "images": [
    {
      "uri": "textures/mat.tree-laurel_baseColor.jpeg"
    },
    {
      "uri": "textures/mat.tree-laurel_metallicRoughness.png"
    }
  ],
  "materials": [
    {
      "doubleSided": true,
      "name": "mat.tree-laurel",
      "occlusionTexture": {
        "index": 1
      },
      "pbrMetallicRoughness": {
        "baseColorTexture": {
          "index": 0
        },
        "metallicFactor": 0.0,
        "metallicRoughnessTexture": {
          "index": 1
        },
        "roughnessFactor": 0.8065929878048781
      }
    }
  ],
  "meshes": [
    {
      "name": "Icosphere.000_mat.tree-laurel_0",
      "primitives": [
        {
          "attributes": {
            "NORMAL": 1,
            "POSITION": 0,
            "TEXCOORD_0": 2
          },
          "indices": 3,
          "material": 0,
          "mode": 4
        }
      ]
    }
  ],
  "nodes": [
    {
      "children": [
        1
      ],
      "matrix": [
        1.0,
        0.0,
        0.0,
        0.0,
        0.0,
        2.220446049250313e-16,
        -1.0,
        0.0,
        0.0,
        1.0,
        2.220446049250313e-16,
        0.0,
        0.0,
        0.0,
        0.0,
        1.0
      ],
      "name": "Sketchfab_model"
    },
    {
      "children": [
        2
      ],
      "matrix": [
        1.0,
        0.0,
        0.0,
        0.0,
        0.0,
        0.0,
        1.0,
        0.0,
        0.0,
        -1.0,
        0.0,
        0.0,
        0.0,
        0.0,
        0.0,
        1.0
      ],
      "name": "880cba9cab124b0f9f5f331c4d234a91.fbx"
    },
    {
      "children": [
        3,
        6,
        9,
        11,
        14
      ],
      "name": "RootNode"
    },
    {
      "children": [
        4
      ],
      "matrix": [
        -71.47382619246861,
        69.56419651156622,
        -7.232892444173896,
        0.0,
        53.846412483950836,
        48.13321147332144,
        -69.1647151072911,
        0.0,
        -44.6324549181088,
        -53.3293213623117,
        -71.86047210405921,
        0.0,
        -1173.2431640625,
        290.9488830566406,
        573.6469116210938,
        1.0
      ],
      "name": "Sun.002"
    },
    {
      "children": [
        5
      ],
      "matrix": [
        1.0,
        0.0,
        0.0,
        0.0,
        0.0,
        2.220446049250313e-16,
        1.0,
        0.0,
        0.0,
        -1.0,
        2.220446049250313e-16,
        0.0,
        0.0,
        0.0,
        0.0,
        1.0
      ],
      "name": "Object_4"
    },
    {
      "name": "Object_5"
    },
    {
      "children": [
        7
      ],
      "matrix": [
        60.42230862234159,
        11.6543982891151,
        -78.82461304227999,
        0.0,
        56.07400089687917,
        64.06385704228094,
        52.4550154349704,
        0.0,
        56.6113995158383,
        -75.8946397480024,
        32.17377156163428,
        0.0,
        -1173.2431640625,
        290.9488830566406,
        573.6469116210938,
        1.0
      ],
      "name": "Sun.001"
    },
    {
      "children": [
        8
      ],
      "matrix": [
        1.0,
        0.0,
        0.0,
        0.0,
        0.0,
        2.220446049250313e-16,
        1.0,
        0.0,
        0.0,
        -1.0,
        2.220446049250313e-16,
        0.0,
        0.0,
        0.0,
        0.0,
        1.0
      ],
      "name": "Object_7"
    },
    {
      "name": "Object_8"
    },
    {
      "children": [
        10
      ],
      "matrix": [
        100.0,
        0.0,
        0.0,
        0.0,
        0.0,
        -1.629206793918314e-05,
        -99.99999999999868,
        0.0,
        0.0,
        99.99999999999868,
        -1.629206793918314e-05,
        0.0,
        0.0,
        0.0,
        0.0,
        1.0
      ],
      "name": "Icosphere.000"
    },
    {
      "mesh": 0,
      "name": "Icosphere.000_mat.tree-laurel_0"
    },
    {
      "children": [
        12
      ],
      "matrix": [
        8.274826192454622,
        99.63338627168889,
        -2.1711899139082824,
        0.0,
        -89.74708659072958,
        6.5030678993173305,
        -43.62532556318762,
        0.0,
        -43.324201787076284,
        5.55850040649053,
        89.95619274259967,
        0.0,
        0.0,
        0.0,
        0.0,
        1.0
      ],
      "name": "Sun"
    },
    {
      "children": [
        13
      ],
      "matrix": [
        1.0,
        0.0,
        0.0,
        0.0,
        0.0,
        2.220446049250313e-16,
        1.0,
        0.0,
        0.0,
        -1.0,
        2.220446049250313e-16,
        0.0,
        0.0,
        0.0,
        0.0,
        1.0
      ],
      "name": "Object_12"
    },
    {
      "name": "Object_13"
    },
    {
      "children": [
        15
      ],
      "matrix": [
        -65.48615898796433,
        -44.52453325786803,
        -61.0665941343716,
        0.0,
        -31.737007733719864,
        89.53432833071254,
        -31.24686209010388,
        0.0,
        68.58808439600038,
        -1.0816600839305441,
        -72.76334716290866,
        0.0,
        748.1131591796875,
        534.3665161132813,
        650.7639770507813,
        1.0
      ],
      "name": "Camera"
    },
    {
      "name": "Object_15"
    }
  ],
  "samplers": [
    {
      "magFilter": 9729,
      "minFilter": 9987,
      "wrapS": 10497,
      "wrapT": 10497
    },
    {
      "magFilter": 9728,
      "minFilter": 9728,
      "wrapS": 10497,
      "wrapT": 10497
    }
  ],
  "scene": 0,
  "scenes": [
    {
      "name": "Sketchfab_Scene",
      "nodes": [
        0
      ]
    }
  ],
  "textures": [
    {
      "sampler": 0,
      "source": 0
    },
    {
      "sampler": 1,
      "source": 1
    }
  ]
}
