{
  "accessors": [
    {
      "bufferView": 2,
      "componentType": 5126,
      "count": 3836,
      "max": [
        1.3642750978469849,
        0.5875490307807922,
        2.8728926181793213
      ],
      "min": [
        -1.0396394729614258,
        -0.6258862614631653,
        0.04704008996486664
      ],
      "type": "VEC3"
    },
    {
      "bufferView": 2,
      "byteOffset": 46032,
      "componentType": 5126,
      "count": 3836,
      "max": [
        1.0,
        1.0,
        1.0
      ],
      "min": [
        -1.0,
        -1.0,
        -1.0
      ],
      "type": "VEC3"
    },
    {
      "bufferView": 3,
      "componentType": 5126,
      "count": 3836,
      "max": [
        1.0,
        1.0,
        1.0,
        1.0
      ],
      "min": [
        -1.0,
        -1.0,
        -1.0,
        -1.0
      ],
      "type": "VEC4"
    },
    {
      "bufferView": 1,
      "componentType": 5126,
      "count": 3836,
      "max": [
        0.9948974847793579,
        0.9960342645645142
      ],
      "min": [
        0.003965795040130615,
        0.003965795040130615
      ],
      "type": "VEC2"
    },
    {
      "bufferView": 1,
      "byteOffset": 30688,
      "componentType": 5126,
      "count": 3836,
      "max": [
        0.9948974847793579,
        0.9960342645645142
      ],
      "min": [
        0.003965795040130615,
        0.003965795040130615
      ],
      "type": "VEC2"
    },
    {
      "bufferView": 1,
      "byteOffset": 61376,
      "componentType": 5126,
      "count": 3836,
      "max": [
        0.9948974847793579,
        0.9960342645645142
      ],
      "min": [
        0.003965795040130615,
        0.003965795040130615
      ],
      "type": "VEC2"
    },
    {
      "bufferView": 0,
      "componentType": 5125,
      "count": 15726,
      "type": "SCALAR"
    },
    {
      "bufferView": 2,
      "byteOffset": 92064,
      "componentType": 5126,
      "count": 2490,
      "max": [
        1.008779764175415,
        1.335986852645874,
        2.875248432159424
      ],
      "min": [
        -0.9333785772323608,
        -0.5740577578544617,
        0.0
      ],
      "type": "VEC3"
    },
    {
      "bufferView": 2,
      "byteOffset": 121944,
      "componentType": 5126,
      "count": 2490,
      "max": [
        1.0,
        1.0,
        1.0
      ],
      "min": [
        -1.0,
        -1.0,
        -1.0
      ],
      "type": "VEC3"
    },
    {
      "bufferView": 3,
      "byteOffset": 61376,
      "componentType": 5126,
      "count": 2490,
      "max": [
        1.0,
        1.0,
        1.0,
        1.0
      ],
      "min": [
        -1.0,
        -1.0,
        -1.0,
        -1.0
      ],
      "type": "VEC4"
    },
    {
      "bufferView": 1,
      "byteOffset": 92064,
      "componentType": 5126,
      "count": 2490,
      "max": [
        0.9874070286750793,
        0.9867831468582153
      ],
      "min": [
        0.01402309536933899,
        0.0200519897043705
      ],
      "type": "VEC2"
    },
    {
      "bufferView": 1,
      "byteOffset": 111984,
      "componentType": 5126,
      "count": 2490,
      "max": [
        0.9874070286750793,
        0.9867831468582153
      ],
      "min": [
        0.01402309536933899,
        0.0200519897043705
      ],
      "type": "VEC2"
    },
    {
      "bufferView": 1,
      "byteOffset": 131904,
      "componentType": 5126,
      "count": 2490,
      "max": [
        0.9874070286750793,
        0.9867831468582153
      ],
      "min": [
        0.01402309536933899,
        0.0200519897043705
      ],
      "type": "VEC2"
    },
    {
      "bufferView": 0,
      "byteOffset": 62904,
      "componentType": 5125,
      "count": 10638,
      "type": "SCALAR"
    }
  ],
  "asset": {
    "extras": {
      "author": "assetfactory (https://sketchfab.com/assetfactory)",
      "license": "CC-BY-4.0 (http://creativecommons.org/licenses/by/4.0/)",
      "source": "https://sketchfab.com/3d-models/ice-cream-food-cart-60b72bdcd1a445abbef6a3a2cbf7de5e",
      "title": "Ice cream food cart"
    },
    "generator": "Sketchfab-14.71.0",
    "version": "2.0"
  },
  "bufferViews": [
    {
      "buffer": 0,
      "byteLength": 105456,
      "name": "floatBufferViews",
      "target": 34963
    },
    {
      "buffer": 0,
      "byteLength": 151824,
      "byteOffset": 105456,
      "byteStride": 8,
      "name": "floatBufferViews",
      "target": 34962
    },
    {
      "buffer": 0,
      "byteLength": 151824,
      "byteOffset": 257280,
      "byteStride": 12,
      "name": "floatBufferViews",
      "target": 34962
    },
    {
      "buffer": 0,
      "byteLength": 101216,
      "byteOffset": 409104,
      "byteStride": 16,
      "name": "floatBufferViews",
      "target": 34962
    }
  ],
  "buffers": [
    {
      "byteLength": 510320,
      "uri": "scene.bin"
    }
  ],
  "images": [
    {
      "uri": "textures/foodcart_1_1_baseColor.png"
    },
    {
      "uri": "textures/foodcart_1_1_metallicRoughness.png"
    },
    {
      "uri": "textures/foodcart_1_1_normal.png"
    },
    {
      "uri": "textures/foodcart_1_2_baseColor.png"
    },
    {
      "uri": "textures/foodcart_1_2_metallicRoughness.png"
    },
    {
      "uri": "textures/foodcart_1_2_normal.png"
    }
  ],
  "materials": [
    {
      "doubleSided": true,
      "name": "foodcart_1_1",
      "normalTexture": {
        "index": 2
      },
      "pbrMetallicRoughness": {
        "baseColorTexture": {
          "index": 0
        },
        "metallicRoughnessTexture": {
          "index": 1
        }
      }
    },
    {
      "doubleSided": true,
      "name": "foodcart_1_2",
      "normalTexture": {
        "index": 5
      },
      "pbrMetallicRoughness": {
        "baseColorTexture": {
          "index": 3
        },
        "metallicRoughnessTexture": {
          "index": 4
        }
      }
    }
  ],
  "meshes": [
    {
      "name": "Cube_foodcart_1_1_0",
      "primitives": [
        {
          "attributes": {
            "NORMAL": 1,
            "POSITION": 0,
            "TANGENT": 2,
            "TEXCOORD_0": 3,
            "TEXCOORD_1": 4,
            "TEXCOORD_2": 5
          },
          "indices": 6,
          "material": 0,
          "mode": 4
        }
      ]
    },
    {
      "name": "Cube_foodcart_1_2_0",
      "primitives": [
        {
          "attributes": {
            "NORMAL": 8,
            "POSITION": 7,
            "TANGENT": 9,
            "TEXCOORD_0": 10,
            "TEXCOORD_1": 11,
            "TEXCOORD_2": 12
          },
          "indices": 13,
          "material": 1,
          "mode": 4
        }
      ]
    }
  ],
  "nodes": [
    {
      "children": [
        1
      ],
      "matrix": [
        1.0,
        0.0,
        0.0,
        0.0,
        0.0,
        2.220446049250313e-16,
        -1.0,
        0.0,
        0.0,
        1.0,
        2.220446049250313e-16,
        0.0,
        0.0,
        0.0,
        0.0,
        1.0
      ],
      "name": "Sketchfab_model"
    },
    {
      "children": [
        2
      ],
      "matrix": [
        0.009999999776482582,
        0.0,
        0.0,
        0.0,
        0.0,
        0.0,
        0.009999999776482582,
        0.0,
        0.0,
        -0.009999999776482582,
        0.0,
        0.0,
        0.0,
        0.0,
        0.0,
        1.0
      ],
      "name": "a3cca465fdf64aadbc10d10bb818fb61.fbx"
    },
    {
      "children": [
        3
      ],
      "name": "RootNode"
    },
    {
      "children": [
        4,
        5
      ],
      "matrix": [
        100.0,
        0.0,
        0.0,
        0.0,
        0.0,
        -1.629206793918314e-05,
        -99.99999999999868,
        0.0,
        0.0,
        99.99999999999868,
        -1.629206793918314e-05,
        0.0,
        0.0,
        0.0,
        0.0,
        1.0
      ],
      "name": "Cube"
    },
    {
      "mesh": 0,
      "name": "Cube_foodcart_1_1_0"
    },
    {
      "mesh": 1,
      "name": "Cube_foodcart_1_2_0"
    }
  ],
  "samplers": [
    {
      "magFilter": 9729,
      "minFilter": 9987,
      "wrapS": 10497,
      "wrapT": 10497
    }
  ],
  "scene": 0,
  "scenes": [
    {
      "name": "Sketchfab_Scene",
      "nodes": [
        0
      ]
    }
  ],
  "textures": [
    {
      "sampler": 0,
      "source": 0
    },
    {
      "sampler": 0,
      "source": 1
    },
    {
      "sampler": 0,
      "source": 2
    },
    {
      "sampler": 0,
      "source": 3
    },
    {
      "sampler": 0,
      "source": 4
    },
    {
      "sampler": 0,
      "source": 5
    }
  ]
}
