<svg width="74" height="73" viewBox="0 0 74 73" fill="none" xmlns="http://www.w3.org/2000/svg">
<path d="M22.9255 2.99414C30.1292 4.43489 36.8194 6.38921 42.1792 9.67378L45.531 15.4526L60.4406 21.3471C59.76 26.0291 54.8864 32.4582 51.8878 38.106L45.1842 41.0532C45.2127 43.6539 41.5633 47.3234 39.4054 49.7505L35.9958 48.6814L37.5561 51.4842C36.2373 54.0706 33.5977 54.8251 31.1415 56.3097L29.35 66.076L32.1239 68.7343L29.9279 70.0059L24.5534 66.8275C24.337 55.7472 24.7814 44.6733 25.0736 33.5985C19.5568 31.6666 16.9527 25.975 13.4001 21.4629C13.0987 21.08 13.4383 15.5875 16.5785 13.43L17.3532 8.41268C19.3981 6.25889 19.7309 5.37833 22.9255 2.99414Z" fill="black"/>
</svg>
