<svg width="70" height="70" viewBox="0 0 70 70" fill="none" xmlns="http://www.w3.org/2000/svg">
<rect width="70" height="70" rx="10" fill="#1C6536"/>
<g opacity="0.5">
<path d="M47.8807 39.9335C47.103 37.1143 45.4218 34.628 43.095 32.8562C40.7683 31.0844 37.9245 30.1249 35 30.1249C32.0755 30.1249 29.2317 31.0844 26.905 32.8562C24.5782 34.628 22.897 37.1143 22.1193 39.9335L20.266 46.6519C19.9333 47.8581 19.8836 49.125 20.121 50.3536C20.3583 51.5822 20.8762 52.7394 21.6343 53.7349C22.3924 54.7304 23.3702 55.5374 24.4914 56.0929C25.6127 56.6485 26.8471 56.9375 28.0984 56.9375H41.9016C43.1529 56.9375 44.3873 56.6485 45.5086 56.0929C46.6298 55.5374 47.6076 54.7304 48.3657 53.7349C49.1238 52.7394 49.6417 51.5822 49.879 50.3536C50.1164 49.125 50.0667 47.8581 49.734 46.6519L47.8807 39.9335ZM45.7801 51.7655C45.3273 52.365 44.741 52.8509 44.0678 53.1845C43.3946 53.5181 42.6529 53.6903 41.9016 53.6875H28.0984C27.3476 53.6875 26.607 53.5141 25.9342 53.1808C25.2614 52.8475 24.6747 52.3633 24.2199 51.7659C23.765 51.1686 23.4543 50.4743 23.3119 49.7371C23.1695 48.9999 23.1993 48.2398 23.3989 47.5161L25.2522 40.7978C25.8408 38.6643 27.1131 36.7828 28.8739 35.4419C30.6347 34.1011 32.7868 33.375 35 33.375C37.2132 33.375 39.3653 34.1011 41.1261 35.4419C42.8869 36.7828 44.1592 38.6643 44.7478 40.7978L46.6011 47.5161C46.8036 48.2395 46.8349 49.0003 46.6924 49.7379C46.5499 50.4756 46.2376 51.1699 45.7801 51.7659V51.7655ZM23.8383 32.3909C24.121 30.6237 23.7461 28.7319 22.782 27.0626C21.818 25.3933 20.3669 24.1227 18.6955 23.4839C16.9055 22.8003 15.0798 22.9092 13.5529 23.7903C10.5175 25.5429 9.71876 29.8623 11.7727 33.419C12.7364 35.0883 14.1876 36.3592 15.859 36.9976C16.5994 37.2862 17.3864 37.4366 18.181 37.4416C19.171 37.4451 20.1442 37.1862 21.0015 36.6911C22.5275 35.8099 23.535 34.2827 23.8383 32.3909ZM20.6289 31.8772C20.4837 32.784 20.0388 33.494 19.3763 33.8765C18.7138 34.259 17.8766 34.2891 17.0184 33.9615C16.042 33.5887 15.1786 32.8188 14.5869 31.794C13.4494 29.8237 13.7197 27.4471 15.1779 26.6049C15.5445 26.3969 15.9597 26.2898 16.3812 26.2944C16.7765 26.2985 17.1678 26.3748 17.5357 26.5195C18.512 26.8926 19.3755 27.6623 19.9672 28.6872C20.5589 29.712 20.7938 30.8452 20.6289 31.8772ZM24.1903 25.658C25.3443 26.5805 26.662 27.0609 27.9946 27.0608C28.3938 27.0606 28.7918 27.0177 29.1818 26.9327C32.6068 26.1881 34.6834 22.3174 33.811 18.3041C33.4017 16.4206 32.4066 14.768 31.0091 13.6507C29.5126 12.4543 27.7399 12.0015 26.0176 12.376C22.5927 13.1205 20.5161 16.9912 21.3884 21.0045C21.7978 22.8882 22.7929 24.5407 24.1903 25.658ZM26.7078 15.5519C26.8658 15.5178 27.0269 15.5008 27.1884 15.5011C27.7925 15.5011 28.4139 15.7375 28.9797 16.1898C29.7959 16.8423 30.3839 17.8386 30.6351 18.9951C31.1186 21.2188 30.1369 23.3996 28.4915 23.7573C27.7439 23.9198 26.9371 23.6936 26.2198 23.12C25.4036 22.4674 24.8156 21.4712 24.5644 20.3148C24.0808 18.0905 25.0625 15.9096 26.7078 15.5519ZM56.4471 23.7903C54.9208 22.9092 53.0942 22.8003 51.3045 23.4839C49.6331 24.1225 48.1819 25.3933 47.2182 27.0626C46.2544 28.7319 45.8794 30.6241 46.1619 32.3909C46.4648 34.2827 47.4721 35.8099 48.9987 36.6911C49.8559 37.1862 50.8292 37.4452 51.8192 37.4416C52.6138 37.4366 53.4008 37.2862 54.1412 36.9976C55.8126 36.3592 57.2638 35.0883 58.2275 33.419C60.2812 29.8623 59.4825 25.5429 56.4471 23.7903ZM55.4131 31.794C54.8214 32.8188 53.958 33.5887 52.9816 33.9615C52.1238 34.2894 51.2864 34.2592 50.6239 33.8765C49.9614 33.4938 49.5168 32.784 49.3713 31.8772C49.2062 30.8452 49.441 29.7125 50.0328 28.6881C50.6246 27.6637 51.488 26.8935 52.4643 26.5204C52.8322 26.3755 53.2235 26.2991 53.6188 26.2949C54.0403 26.2903 54.4555 26.3974 54.8221 26.6054C56.2803 27.4469 56.551 29.8232 55.4131 31.794ZM40.8182 26.9327C41.2082 27.0177 41.6062 27.0606 42.0054 27.0608C43.3379 27.0608 44.6562 26.5805 45.8097 25.658C47.2071 24.5408 48.2022 22.8882 48.6116 21.0046C49.4839 16.9913 47.4073 13.1206 43.9824 12.3761C42.2602 12.0018 40.4874 12.4543 38.9909 13.6508C37.5934 14.768 36.5983 16.4207 36.189 18.3041C35.3166 22.3174 37.3932 26.1881 40.8182 26.9327ZM39.3649 18.9946C39.6161 17.8381 40.2041 16.8414 41.0203 16.1893C41.5862 15.7369 42.2075 15.5006 42.8116 15.5006C42.9731 15.5003 43.1342 15.5173 43.2922 15.5514C44.9375 15.9091 45.9192 18.0905 45.4358 20.3137C45.1844 21.4701 44.5964 22.4668 43.7804 23.119C43.0632 23.6924 42.2569 23.9187 41.5087 23.7563C39.8631 23.3991 38.8814 21.218 39.3649 18.9946Z" fill="white"/>
</g>
</svg>
