<svg width="70" height="70" viewBox="0 0 70 70" fill="none" xmlns="http://www.w3.org/2000/svg">
<rect width="70" height="70" rx="10" fill="#1C6536"/>
<g opacity="0.5">
<path d="M35.4999 13.875C31.2419 13.875 27.1582 15.5665 24.1473 18.5774C21.1365 21.5883 19.4449 25.6719 19.4449 29.93V31.1C20.0949 39.8967 27.3966 46.9708 35.4999 56.125C43.9608 46.57 51.5549 39.3333 51.5549 29.93C51.5549 25.6719 49.8634 21.5883 46.8525 18.5774C43.8417 15.5665 39.758 13.875 35.4999 13.875ZM35.4999 22.2167C37.0281 22.2167 38.5219 22.67 39.7924 23.5192C41.0629 24.3684 42.0529 25.5754 42.6372 26.9874C43.2215 28.3995 43.3738 29.9531 43.0749 31.4517C42.776 32.9504 42.0392 34.3267 40.9579 35.4065C39.8766 36.4863 38.4993 37.2211 37.0002 37.5179C35.5011 37.8147 33.9477 37.6602 32.5365 37.0739C31.1253 36.4876 29.9197 35.4959 29.0723 34.2243C28.2248 32.9526 27.7736 31.4582 27.7758 29.93C27.7787 27.8833 28.5937 25.9214 30.042 24.4752C31.4902 23.029 33.4532 22.2167 35.4999 22.2167Z" stroke="white" stroke-width="2" stroke-linecap="round" stroke-linejoin="round"/>
</g>
</svg>
