{
  "accessors": [
    {
      "bufferView": 2,
      "componentType": 5126,
      "count": 65532,
      "max": [
        1.3553978204727173,
        -17.533430099487305,
        -6.984701633453369
      ],
      "min": [
        -6.946985721588135,
        -36.98567199707031,
        -15.472853660583496
      ],
      "type": "VEC3"
    },
    {
      "bufferView": 2,
      "byteOffset": 786384,
      "componentType": 5126,
      "count": 65532,
      "max": [
        0.9999994039535522,
        1.0,
        0.9999994039535522
      ],
      "min": [
        -0.9999999403953552,
        -0.9999988675117493,
        -1.0
      ],
      "type": "VEC3"
    },
    {
      "bufferView": 1,
      "componentType": 5126,
      "count": 65532,
      "max": [
        0.9980199933052063,
        0.8557699918746948
      ],
      "min": [
        0.1436299979686737,
        0.0019499999471008778
      ],
      "type": "VEC2"
    },
    {
      "bufferView": 0,
      "componentType": 5125,
      "count": 318054,
      "type": "SCALAR"
    },
    {
      "bufferView": 2,
      "byteOffset": 1572768,
      "componentType": 5126,
      "count": 65533,
      "max": [
        1.312126874923706,
        -17.53404998779297,
        -7.035557746887207
      ],
      "min": [
        -6.977532386779785,
        -42.80317306518555,
        -15.45033073425293
      ],
      "type": "VEC3"
    },
    {
      "bufferView": 2,
      "byteOffset": 2359164,
      "componentType": 5126,
      "count": 65533,
      "max": [
        0.9999992251396179,
        0.9999999403953552,
        0.9999975562095642
      ],
      "min": [
        -0.9999983906745911,
        -0.9999983906745911,
        -0.9999977946281433
      ],
      "type": "VEC3"
    },
    {
      "bufferView": 1,
      "byteOffset": 524256,
      "componentType": 5126,
      "count": 65533,
      "max": [
        0.9948700070381165,
        0.8622900247573853
      ],
      "min": [
        0.053369998931884766,
        0.012849999591708183
      ],
      "type": "VEC2"
    },
    {
      "bufferView": 0,
      "byteOffset": 1272216,
      "componentType": 5125,
      "count": 318705,
      "type": "SCALAR"
    },
    {
      "bufferView": 2,
      "byteOffset": 3145560,
      "componentType": 5126,
      "count": 44991,
      "max": [
        1.352242350578308,
        -17.5362491607666,
        -6.984701633453369
      ],
      "min": [
        -6.969425678253174,
        -44.261199951171875,
        -15.46229362487793
      ],
      "type": "VEC3"
    },
    {
      "bufferView": 2,
      "byteOffset": 3685452,
      "componentType": 5126,
      "count": 44991,
      "max": [
        0.9999993443489075,
        0.9999998211860657,
        0.9999991059303284
      ],
      "min": [
        -0.9999999403953552,
        -0.9999988675117493,
        -0.9999945163726807
      ],
      "type": "VEC3"
    },
    {
      "bufferView": 1,
      "byteOffset": 1048520,
      "componentType": 5126,
      "count": 44991,
      "max": [
        0.9958299994468689,
        0.860010027885437
      ],
      "min": [
        0.0020099999383091927,
        0.012849999591708183
      ],
      "type": "VEC2"
    },
    {
      "bufferView": 0,
      "byteOffset": 2547036,
      "componentType": 5125,
      "count": 113253,
      "type": "SCALAR"
    }
  ],
  "asset": {
    "extras": {
      "author": "Taylor (https://sketchfab.com/thoulihan)",
      "license": "CC-BY-4.0 (http://creativecommons.org/licenses/by/4.0/)",
      "source": "https://sketchfab.com/3d-models/baltimore-clock-tower-d409c98460af470897311ef8e2145bff",
      "title": "Baltimore Clock Tower"
    },
    "generator": "Sketchfab-12.68.0",
    "version": "2.0"
  },
  "bufferViews": [
    {
      "buffer": 0,
      "byteLength": 3000048,
      "name": "floatBufferViews",
      "target": 34963
    },
    {
      "buffer": 0,
      "byteLength": 1408448,
      "byteOffset": 3000048,
      "byteStride": 8,
      "name": "floatBufferViews",
      "target": 34962
    },
    {
      "buffer": 0,
      "byteLength": 4225344,
      "byteOffset": 4408496,
      "byteStride": 12,
      "name": "floatBufferViews",
      "target": 34962
    }
  ],
  "buffers": [
    {
      "byteLength": 8633840,
      "uri": "scene.bin"
    }
  ],
  "extensionsUsed": [
    "KHR_materials_unlit"
  ],
  "images": [
    {
      "uri": "textures/defaultMat_baseColor.png"
    }
  ],
  "materials": [
    {
      "doubleSided": true,
      "extensions": {
        "KHR_materials_unlit": {}
      },
      "name": "defaultMat",
      "pbrMetallicRoughness": {
        "baseColorTexture": {
          "index": 0
        },
        "metallicFactor": 0.0
      }
    }
  ],
  "meshes": [
    {
      "name": "Object_0",
      "primitives": [
        {
          "attributes": {
            "NORMAL": 1,
            "POSITION": 0,
            "TEXCOORD_0": 2
          },
          "indices": 3,
          "material": 0,
          "mode": 4
        }
      ]
    },
    {
      "name": "Object_1",
      "primitives": [
        {
          "attributes": {
            "NORMAL": 5,
            "POSITION": 4,
            "TEXCOORD_0": 6
          },
          "indices": 7,
          "material": 0,
          "mode": 4
        }
      ]
    },
    {
      "name": "Object_2",
      "primitives": [
        {
          "attributes": {
            "NORMAL": 9,
            "POSITION": 8,
            "TEXCOORD_0": 10
          },
          "indices": 11,
          "material": 0,
          "mode": 4
        }
      ]
    }
  ],
  "nodes": [
    {
      "children": [
        1
      ],
      "matrix": [
        0.03207946568727493,
        4.439749265766323e-16,
        -0.9994853138923645,
        0.0,
        -0.0006154018919914961,
        -0.9999998211860657,
        -1.975192935810277e-05,
        0.0,
        -0.9994851350784302,
        0.0006157187744975162,
        -0.032079458236694336,
        0.0,
        -13.96295166015625,
        -42.11920928955079,
        27.726856231689442,
        1.0
      ],
      "name": "Sketchfab_model"
    },
    {
      "children": [
        2,
        3,
        4
      ],
      "name": "STScIClock_250k_meters.OBJ.cleaner.materialmerger.gles"
    },
    {
      "mesh": 0,
      "name": "Object_2"
    },
    {
      "mesh": 1,
      "name": "Object_3"
    },
    {
      "mesh": 2,
      "name": "Object_4"
    }
  ],
  "samplers": [
    {
      "magFilter": 9729,
      "minFilter": 9987,
      "wrapS": 10497,
      "wrapT": 10497
    }
  ],
  "scene": 0,
  "scenes": [
    {
      "name": "Sketchfab_Scene",
      "nodes": [
        0
      ]
    }
  ],
  "textures": [
    {
      "sampler": 0,
      "source": 0
    }
  ]
}
