{
  "accessors": [
    {
      "bufferView": 2,
      "componentType": 5126,
      "count": 65532,
      "max": [
        6.877474784851074,
        1.8393709659576416,
        17.24696922302246
      ],
      "min": [
        -17.076107025146484,
        -19.41338348388672,
        -8.095479965209961
      ],
      "type": "VEC3"
    },
    {
      "bufferView": 2,
      "byteOffset": 786384,
      "componentType": 5126,
      "count": 65532,
      "max": [
        0.9999998211860657,
        0.9999976754188538,
        0.9999438524246216
      ],
      "min": [
        -0.999999463558197,
        -1.0,
        -0.9999948143959045
      ],
      "type": "VEC3"
    },
    {
      "bufferView": 1,
      "componentType": 5126,
      "count": 65532,
      "max": [
        0.9991530179977417,
        0.9987789988517761
      ],
      "min": [
        0.00024399999529123306,
        0.0002469999890308827
      ],
      "type": "VEC2"
    },
    {
      "bufferView": 0,
      "componentType": 5125,
      "count": 254505,
      "type": "SCALAR"
    },
    {
      "bufferView": 2,
      "byteOffset": 1572768,
      "componentType": 5126,
      "count": 65532,
      "max": [
        -7.847513198852539,
        -4.417595863342285,
        10.138310432434082
      ],
      "min": [
        -17.056331634521484,
        -17.95705223083496,
        -4.748373031616211
      ],
      "type": "VEC3"
    },
    {
      "bufferView": 2,
      "byteOffset": 2359152,
      "componentType": 5126,
      "count": 65532,
      "max": [
        0.9999954700469971,
        0.9999743103981018,
        0.9993855953216553
      ],
      "min": [
        -0.9999980926513672,
        -0.9999974966049194,
        -0.9999964237213135
      ],
      "type": "VEC3"
    },
    {
      "bufferView": 1,
      "byteOffset": 524256,
      "componentType": 5126,
      "count": 65532,
      "max": [
        0.9997490048408508,
        0.9743649959564209
      ],
      "min": [
        0.00024399999529123306,
        0.00031900001340545714
      ],
      "type": "VEC2"
    },
    {
      "bufferView": 0,
      "byteOffset": 1018020,
      "componentType": 5125,
      "count": 227646,
      "type": "SCALAR"
    },
    {
      "bufferView": 2,
      "byteOffset": 3145536,
      "componentType": 5126,
      "count": 65532,
      "max": [
        3.2201099395751953,
        -1.4766889810562134,
        10.529146194458008
      ],
      "min": [
        -17.051313400268555,
        -16.492387771606445,
        -5.04915714263916
      ],
      "type": "VEC3"
    },
    {
      "bufferView": 2,
      "byteOffset": 3931920,
      "componentType": 5126,
      "count": 65532,
      "max": [
        0.9999686479568481,
        0.9999762177467346,
        0.999590277671814
      ],
      "min": [
        -0.9999887347221375,
        -0.9999974966049194,
        -0.9999942183494568
      ],
      "type": "VEC3"
    },
    {
      "bufferView": 1,
      "byteOffset": 1048512,
      "componentType": 5126,
      "count": 65532,
      "max": [
        0.9997509717941284,
        0.970458984375
      ],
      "min": [
        0.00024399999529123306,
        0.0002530000056140125
      ],
      "type": "VEC2"
    },
    {
      "bufferView": 0,
      "byteOffset": 1928604,
      "componentType": 5125,
      "count": 178278,
      "type": "SCALAR"
    },
    {
      "bufferView": 2,
      "byteOffset": 4718304,
      "componentType": 5126,
      "count": 65532,
      "max": [
        14.744691848754883,
        -0.842399001121521,
        9.723292350769043
      ],
      "min": [
        -10.962247848510742,
        -11.092698097229004,
        -8.137653350830078
      ],
      "type": "VEC3"
    },
    {
      "bufferView": 2,
      "byteOffset": 5504688,
      "componentType": 5126,
      "count": 65532,
      "max": [
        0.999997079372406,
        0.9991429448127747,
        0.9999749660491943
      ],
      "min": [
        -0.999954879283905,
        -1.0,
        -0.9999924898147583
      ],
      "type": "VEC3"
    },
    {
      "bufferView": 1,
      "byteOffset": 1572768,
      "componentType": 5126,
      "count": 65532,
      "max": [
        0.999584972858429,
        0.9655759930610657
      ],
      "min": [
        0.00024399999529123306,
        0.0004070000140927732
      ],
      "type": "VEC2"
    },
    {
      "bufferView": 0,
      "byteOffset": 2641716,
      "componentType": 5125,
      "count": 272022,
      "type": "SCALAR"
    },
    {
      "bufferView": 2,
      "byteOffset": 6291072,
      "componentType": 5126,
      "count": 65532,
      "max": [
        8.016400337219238,
        -1.097195029258728,
        9.11749267578125
      ],
      "min": [
        -9.383883476257324,
        -11.047821044921875,
        -7.570192813873291
      ],
      "type": "VEC3"
    },
    {
      "bufferView": 2,
      "byteOffset": 7077456,
      "componentType": 5126,
      "count": 65532,
      "max": [
        0.999997615814209,
        0.9995733499526978,
        0.9996739029884338
      ],
      "min": [
        -0.9999156594276428,
        -0.9999983310699463,
        -0.9999988079071045
      ],
      "type": "VEC3"
    },
    {
      "bufferView": 1,
      "byteOffset": 2097024,
      "componentType": 5126,
      "count": 65532,
      "max": [
        0.9997490048408508,
        0.9763180017471313
      ],
      "min": [
        0.00024399999529123306,
        0.00025099999038502574
      ],
      "type": "VEC2"
    },
    {
      "bufferView": 0,
      "byteOffset": 3729804,
      "componentType": 5125,
      "count": 211641,
      "type": "SCALAR"
    },
    {
      "bufferView": 2,
      "byteOffset": 7863840,
      "componentType": 5126,
      "count": 65532,
      "max": [
        15.486234664916992,
        1.8515069484710693,
        17.24696922302246
      ],
      "min": [
        -17.076107025146484,
        -21.128732681274414,
        -8.153112411499023
      ],
      "type": "VEC3"
    },
    {
      "bufferView": 2,
      "byteOffset": 8650224,
      "componentType": 5126,
      "count": 65532,
      "max": [
        0.9999992251396179,
        0.9999992251396179,
        0.9997264742851257
      ],
      "min": [
        -0.9999848008155823,
        -0.9999978542327881,
        -0.999980628490448
      ],
      "type": "VEC3"
    },
    {
      "bufferView": 1,
      "byteOffset": 2621280,
      "componentType": 5126,
      "count": 65532,
      "max": [
        0.9997439980506897,
        0.970458984375
      ],
      "min": [
        0.00024399999529123306,
        0.0002530000056140125
      ],
      "type": "VEC2"
    },
    {
      "bufferView": 0,
      "byteOffset": 4576368,
      "componentType": 5125,
      "count": 210093,
      "type": "SCALAR"
    },
    {
      "bufferView": 2,
      "byteOffset": 9436608,
      "componentType": 5126,
      "count": 65532,
      "max": [
        15.486234664916992,
        1.8189040422439575,
        17.24696922302246
      ],
      "min": [
        -17.031143188476563,
        -21.131160736083984,
        5.621358871459961
      ],
      "type": "VEC3"
    },
    {
      "bufferView": 2,
      "byteOffset": 10222992,
      "componentType": 5126,
      "count": 65532,
      "max": [
        0.9999940991401672,
        0.9999537467956543,
        0.9999991655349731
      ],
      "min": [
        -0.9999889731407166,
        -0.9999990463256836,
        -0.9999958872795105
      ],
      "type": "VEC3"
    },
    {
      "bufferView": 1,
      "byteOffset": 3145536,
      "componentType": 5126,
      "count": 65532,
      "max": [
        0.999646008014679,
        0.9743649959564209
      ],
      "min": [
        0.00024399999529123306,
        0.0002570000069681555
      ],
      "type": "VEC2"
    },
    {
      "bufferView": 0,
      "byteOffset": 5416740,
      "componentType": 5125,
      "count": 239487,
      "type": "SCALAR"
    },
    {
      "bufferView": 2,
      "byteOffset": 11009376,
      "componentType": 5126,
      "count": 65533,
      "max": [
        15.48105525970459,
        1.8067690134048462,
        17.24696922302246
      ],
      "min": [
        -17.039554595947266,
        -21.124975204467773,
        8.002111434936523
      ],
      "type": "VEC3"
    },
    {
      "bufferView": 2,
      "byteOffset": 11795772,
      "componentType": 5126,
      "count": 65533,
      "max": [
        0.9999998211860657,
        0.9999846816062927,
        0.9977135062217712
      ],
      "min": [
        -0.9999983906745911,
        -0.999983549118042,
        -0.9999968409538269
      ],
      "type": "VEC3"
    },
    {
      "bufferView": 1,
      "byteOffset": 3669792,
      "componentType": 5126,
      "count": 65533,
      "max": [
        0.9997010231018066,
        0.9733890295028687
      ],
      "min": [
        0.00024399999529123306,
        0.0002469999890308827
      ],
      "type": "VEC2"
    },
    {
      "bufferView": 0,
      "byteOffset": 6374688,
      "componentType": 5125,
      "count": 230508,
      "type": "SCALAR"
    },
    {
      "bufferView": 2,
      "byteOffset": 12582168,
      "componentType": 5126,
      "count": 65532,
      "max": [
        15.486234664916992,
        1.8515069484710693,
        17.190807342529297
      ],
      "min": [
        -17.076107025146484,
        -21.129947662353516,
        -8.153112411499023
      ],
      "type": "VEC3"
    },
    {
      "bufferView": 2,
      "byteOffset": 13368552,
      "componentType": 5126,
      "count": 65532,
      "max": [
        0.9999946355819702,
        0.9999902248382568,
        0.9999987483024597
      ],
      "min": [
        -0.9999428987503052,
        -1.0,
        -0.9999992251396179
      ],
      "type": "VEC3"
    },
    {
      "bufferView": 1,
      "byteOffset": 4194056,
      "componentType": 5126,
      "count": 65532,
      "max": [
        0.9997469782829285,
        0.970458984375
      ],
      "min": [
        0.00024399999529123306,
        0.00024500000290572643
      ],
      "type": "VEC2"
    },
    {
      "bufferView": 0,
      "byteOffset": 7296720,
      "componentType": 5125,
      "count": 257166,
      "type": "SCALAR"
    },
    {
      "bufferView": 2,
      "byteOffset": 14154936,
      "componentType": 5126,
      "count": 65532,
      "max": [
        15.457406997680664,
        1.8393709659576416,
        8.36663818359375
      ],
      "min": [
        -17.076107025146484,
        -8.38078784942627,
        -8.137653350830078
      ],
      "type": "VEC3"
    },
    {
      "bufferView": 2,
      "byteOffset": 14941320,
      "componentType": 5126,
      "count": 65532,
      "max": [
        0.9999963045120239,
        0.9999518394470215,
        0.999910831451416
      ],
      "min": [
        -0.9999492764472961,
        -1.0,
        -0.9999983906745911
      ],
      "type": "VEC3"
    },
    {
      "bufferView": 1,
      "byteOffset": 4718312,
      "componentType": 5126,
      "count": 65532,
      "max": [
        0.9997469782829285,
        0.9753419756889343
      ],
      "min": [
        0.00024399999529123306,
        0.00026199998683296144
      ],
      "type": "VEC2"
    },
    {
      "bufferView": 0,
      "byteOffset": 8325384,
      "componentType": 5125,
      "count": 208158,
      "type": "SCALAR"
    },
    {
      "bufferView": 2,
      "byteOffset": 15727704,
      "componentType": 5126,
      "count": 65532,
      "max": [
        15.476179122924805,
        1.8393709659576416,
        14.548602104187012
      ],
      "min": [
        -17.076107025146484,
        -19.28565216064453,
        -8.153112411499023
      ],
      "type": "VEC3"
    },
    {
      "bufferView": 2,
      "byteOffset": 16514088,
      "componentType": 5126,
      "count": 65532,
      "max": [
        0.9999992251396179,
        0.9992265105247498,
        0.9996092319488525
      ],
      "min": [
        -0.9999983906745911,
        -1.0,
        -0.9999974370002747
      ],
      "type": "VEC3"
    },
    {
      "bufferView": 1,
      "byteOffset": 5242568,
      "componentType": 5126,
      "count": 65532,
      "max": [
        0.9997529983520508,
        0.9782710075378418
      ],
      "min": [
        0.00024399999529123306,
        0.00025400001322850585
      ],
      "type": "VEC2"
    },
    {
      "bufferView": 0,
      "byteOffset": 9158016,
      "componentType": 5125,
      "count": 227067,
      "type": "SCALAR"
    },
    {
      "bufferView": 2,
      "byteOffset": 17300472,
      "componentType": 5126,
      "count": 65532,
      "max": [
        15.478568077087402,
        -1.4123029708862305,
        17.195037841796875
      ],
      "min": [
        -17.036855697631836,
        -21.132373809814453,
        8.003334999084473
      ],
      "type": "VEC3"
    },
    {
      "bufferView": 2,
      "byteOffset": 18086856,
      "componentType": 5126,
      "count": 65532,
      "max": [
        0.9999992251396179,
        0.999987006187439,
        0.9999545216560364
      ],
      "min": [
        -0.9999806880950928,
        -0.9999797344207764,
        -0.9999990463256836
      ],
      "type": "VEC3"
    },
    {
      "bufferView": 1,
      "byteOffset": 5766824,
      "componentType": 5126,
      "count": 65532,
      "max": [
        0.9997479915618896,
        0.9694820046424866
      ],
      "min": [
        0.00024399999529123306,
        0.0002579999854788184
      ],
      "type": "VEC2"
    },
    {
      "bufferView": 0,
      "byteOffset": 10066284,
      "componentType": 5125,
      "count": 200328,
      "type": "SCALAR"
    },
    {
      "bufferView": 2,
      "byteOffset": 18873240,
      "componentType": 5126,
      "count": 65534,
      "max": [
        15.481980323791504,
        -1.1532260179519653,
        17.2065486907959
      ],
      "min": [
        -17.026792526245117,
        -19.706602096557617,
        8.026453971862793
      ],
      "type": "VEC3"
    },
    {
      "bufferView": 2,
      "byteOffset": 19659648,
      "componentType": 5126,
      "count": 65534,
      "max": [
        0.9999998211860657,
        0.9998818039894104,
        0.9999452829360962
      ],
      "min": [
        -0.9999039173126221,
        -0.9999989867210388,
        -0.9999902248382568
      ],
      "type": "VEC3"
    },
    {
      "bufferView": 1,
      "byteOffset": 6291080,
      "componentType": 5126,
      "count": 65534,
      "max": [
        0.9997469782829285,
        0.9675289988517761
      ],
      "min": [
        0.00024399999529123306,
        0.0002479999966453761
      ],
      "type": "VEC2"
    },
    {
      "bufferView": 0,
      "byteOffset": 10867596,
      "componentType": 5125,
      "count": 172122,
      "type": "SCALAR"
    },
    {
      "bufferView": 2,
      "byteOffset": 20446056,
      "componentType": 5126,
      "count": 9105,
      "max": [
        15.463623046875,
        -1.4836410284042358,
        15.500541687011719
      ],
      "min": [
        -11.21327018737793,
        -19.405366897583008,
        8.022628784179688
      ],
      "type": "VEC3"
    },
    {
      "bufferView": 2,
      "byteOffset": 20555316,
      "componentType": 5126,
      "count": 9105,
      "max": [
        0.99969482421875,
        0.9998996257781982,
        0.9985463619232178
      ],
      "min": [
        -0.9991574287414551,
        -0.9999502301216125,
        -0.9999881982803345
      ],
      "type": "VEC3"
    },
    {
      "bufferView": 1,
      "byteOffset": 6815352,
      "componentType": 5126,
      "count": 9105,
      "max": [
        0.9996259808540344,
        0.9645990133285522
      ],
      "min": [
        0.00024399999529123306,
        0.00025099999038502574
      ],
      "type": "VEC2"
    },
    {
      "bufferView": 0,
      "byteOffset": 11556084,
      "componentType": 5125,
      "count": 18315,
      "type": "SCALAR"
    }
  ],
  "asset": {
    "extras": {
      "author": "artfletch (https://sketchfab.com/artfletch)",
      "license": "CC-BY-4.0 (http://creativecommons.org/licenses/by/4.0/)",
      "source": "https://sketchfab.com/3d-models/london-zoo-indian-stall-118fbe3dfaeb45e78250e66fdbcb6406",
      "title": "London Zoo Indian Stall"
    },
    "generator": "Sketchfab-12.67.0",
    "version": "2.0"
  },
  "bufferViews": [
    {
      "buffer": 0,
      "byteLength": 11629344,
      "name": "floatBufferViews",
      "target": 34963
    },
    {
      "buffer": 0,
      "byteLength": 6888192,
      "byteOffset": 11629344,
      "byteStride": 8,
      "name": "floatBufferViews",
      "target": 34962
    },
    {
      "buffer": 0,
      "byteLength": 20664576,
      "byteOffset": 18517536,
      "byteStride": 12,
      "name": "floatBufferViews",
      "target": 34962
    }
  ],
  "buffers": [
    {
      "byteLength": 39182112,
      "uri": "scene.bin"
    }
  ],
  "extensionsUsed": [
    "KHR_materials_unlit"
  ],
  "images": [
    {
      "uri": "textures/LondonZooIndianStall02_LondonZooIndianStall02_u1_v1_baseColor.jpeg"
    }
  ],
  "materials": [
    {
      "doubleSided": true,
      "extensions": {
        "KHR_materials_unlit": {}
      },
      "name": "LondonZooIndianStall02_LondonZooIndianStall02_u1_v1",
      "pbrMetallicRoughness": {
        "baseColorTexture": {
          "index": 0
        },
        "metallicFactor": 0.0
      }
    }
  ],
  "meshes": [
    {
      "name": "Object_0",
      "primitives": [
        {
          "attributes": {
            "NORMAL": 1,
            "POSITION": 0,
            "TEXCOORD_0": 2
          },
          "indices": 3,
          "material": 0,
          "mode": 4
        }
      ]
    },
    {
      "name": "Object_1",
      "primitives": [
        {
          "attributes": {
            "NORMAL": 5,
            "POSITION": 4,
            "TEXCOORD_0": 6
          },
          "indices": 7,
          "material": 0,
          "mode": 4
        }
      ]
    },
    {
      "name": "Object_2",
      "primitives": [
        {
          "attributes": {
            "NORMAL": 9,
            "POSITION": 8,
            "TEXCOORD_0": 10
          },
          "indices": 11,
          "material": 0,
          "mode": 4
        }
      ]
    },
    {
      "name": "Object_3",
      "primitives": [
        {
          "attributes": {
            "NORMAL": 13,
            "POSITION": 12,
            "TEXCOORD_0": 14
          },
          "indices": 15,
          "material": 0,
          "mode": 4
        }
      ]
    },
    {
      "name": "Object_4",
      "primitives": [
        {
          "attributes": {
            "NORMAL": 17,
            "POSITION": 16,
            "TEXCOORD_0": 18
          },
          "indices": 19,
          "material": 0,
          "mode": 4
        }
      ]
    },
    {
      "name": "Object_5",
      "primitives": [
        {
          "attributes": {
            "NORMAL": 21,
            "POSITION": 20,
            "TEXCOORD_0": 22
          },
          "indices": 23,
          "material": 0,
          "mode": 4
        }
      ]
    },
    {
      "name": "Object_6",
      "primitives": [
        {
          "attributes": {
            "NORMAL": 25,
            "POSITION": 24,
            "TEXCOORD_0": 26
          },
          "indices": 27,
          "material": 0,
          "mode": 4
        }
      ]
    },
    {
      "name": "Object_7",
      "primitives": [
        {
          "attributes": {
            "NORMAL": 29,
            "POSITION": 28,
            "TEXCOORD_0": 30
          },
          "indices": 31,
          "material": 0,
          "mode": 4
        }
      ]
    },
    {
      "name": "Object_8",
      "primitives": [
        {
          "attributes": {
            "NORMAL": 33,
            "POSITION": 32,
            "TEXCOORD_0": 34
          },
          "indices": 35,
          "material": 0,
          "mode": 4
        }
      ]
    },
    {
      "name": "Object_9",
      "primitives": [
        {
          "attributes": {
            "NORMAL": 37,
            "POSITION": 36,
            "TEXCOORD_0": 38
          },
          "indices": 39,
          "material": 0,
          "mode": 4
        }
      ]
    },
    {
      "name": "Object_10",
      "primitives": [
        {
          "attributes": {
            "NORMAL": 41,
            "POSITION": 40,
            "TEXCOORD_0": 42
          },
          "indices": 43,
          "material": 0,
          "mode": 4
        }
      ]
    },
    {
      "name": "Object_11",
      "primitives": [
        {
          "attributes": {
            "NORMAL": 45,
            "POSITION": 44,
            "TEXCOORD_0": 46
          },
          "indices": 47,
          "material": 0,
          "mode": 4
        }
      ]
    },
    {
      "name": "Object_12",
      "primitives": [
        {
          "attributes": {
            "NORMAL": 49,
            "POSITION": 48,
            "TEXCOORD_0": 50
          },
          "indices": 51,
          "material": 0,
          "mode": 4
        }
      ]
    },
    {
      "name": "Object_13",
      "primitives": [
        {
          "attributes": {
            "NORMAL": 53,
            "POSITION": 52,
            "TEXCOORD_0": 54
          },
          "indices": 55,
          "material": 0,
          "mode": 4
        }
      ]
    }
  ],
  "nodes": [
    {
      "children": [
        1
      ],
      "matrix": [
        1.0,
        0.0,
        0.0,
        0.0,
        0.0,
        -1.0,
        -4.440892098500626e-16,
        0.0,
        0.0,
        4.440892098500626e-16,
        -1.0,
        0.0,
        0.0,
        -5.093529701232914,
        14.18738269805908,
        1.0
      ],
      "name": "Sketchfab_model"
    },
    {
      "children": [
        2,
        3,
        4,
        5,
        6,
        7,
        8,
        9,
        10,
        11,
        12,
        13,
        14,
        15
      ],
      "name": "LondonZooIndianStall04.obj.cleaner.materialmerger.gles"
    },
    {
      "mesh": 0,
      "name": "Object_2"
    },
    {
      "mesh": 1,
      "name": "Object_3"
    },
    {
      "mesh": 2,
      "name": "Object_4"
    },
    {
      "mesh": 3,
      "name": "Object_5"
    },
    {
      "mesh": 4,
      "name": "Object_6"
    },
    {
      "mesh": 5,
      "name": "Object_7"
    },
    {
      "mesh": 6,
      "name": "Object_8"
    },
    {
      "mesh": 7,
      "name": "Object_9"
    },
    {
      "mesh": 8,
      "name": "Object_10"
    },
    {
      "mesh": 9,
      "name": "Object_11"
    },
    {
      "mesh": 10,
      "name": "Object_12"
    },
    {
      "mesh": 11,
      "name": "Object_13"
    },
    {
      "mesh": 12,
      "name": "Object_14"
    },
    {
      "mesh": 13,
      "name": "Object_15"
    }
  ],
  "samplers": [
    {
      "magFilter": 9729,
      "minFilter": 9987,
      "wrapS": 10497,
      "wrapT": 10497
    }
  ],
  "scene": 0,
  "scenes": [
    {
      "name": "Sketchfab_Scene",
      "nodes": [
        0
      ]
    }
  ],
  "textures": [
    {
      "sampler": 0,
      "source": 0
    }
  ]
}
